<?xml version="1.0" encoding="utf-8"?>
<!-- Generator: Adobe Illustrator 18.1.1, SVG Export Plug-In . SVG Version: 6.00 Build 0)  -->
<!DOCTYPE svg PUBLIC "-//W3C//DTD SVG 1.1//EN" "http://www.w3.org/Graphics/SVG/1.1/DTD/svg11.dtd">
<svg version="1.1" id="Layer_1" xmlns="http://www.w3.org/2000/svg" xmlns:xlink="http://www.w3.org/1999/xlink" x="0px" y="0px"
	 viewBox="0 363 595.8 115.9" enable-background="new 0 363 595.8 115.9" xml:space="preserve">
<g>
	<g>
		<path fill="#94C948" d="M108.9,378c-17.6,0-31.7,36.2-31.7,53.8c0,17.6,14.2,32.1,31.7,32.1s31.7-14.2,31.7-32.1
			C140.7,413.8,126.5,378,108.9,378z M108.9,449.7c-10.5,0-17.6-6.7-17.6-17.9c0-9.7,7.1-28.8,17.6-28.8c10.8,0,17.6,18.7,17.6,28.8
			C126.5,443.4,119.4,449.7,108.9,449.7z"/>
	</g>
	<path fill="#262626" d="M189.2,437.7c0,2.6,1.9,4.5,4.5,4.5c1.9,0,3.7-1.1,4.5-3l3-7.5h19.4l3,7.1c0.7,1.9,2.2,3.4,4.9,3.4
		c2.6,0,4.5-2.2,4.5-4.9c0-0.7-0.4-1.1-0.4-1.9l-15.3-35.1c-1.1-2.2-3-3.7-5.6-3.7h-0.7c-2.6,0-4.5,1.5-5.6,3.7L190,435.5
		C189.2,436.3,189.2,437,189.2,437.7z M204.9,423.2l6-14.6l6,14.6H204.9z"/>
	<path fill="#262626" d="M253.8,442.6h0.7c2.6,0,4.5-1.5,5.6-3.7l14.6-34.7c0-0.7,0.4-1.9,0.4-2.6c0-2.6-2.2-4.9-4.9-4.9
		c-2.2,0-4.1,1.5-4.9,3l-11.2,29.1L243,400c-0.7-1.9-2.2-3.4-4.9-3.4s-4.9,2.2-4.9,4.9c0,0.7,0.4,1.5,0.7,2.2l14.6,34.4
		C249.3,441.1,251.2,442.6,253.8,442.6z"/>
	<path fill="#262626" d="M302.4,442.6c13.8,0,23.5-10.5,23.5-23.2l0,0c0.4-12.7-9.7-22.8-23.2-22.8c-13.8,0-23.9,10.1-23.9,22.8l0,0
		C278.8,432.1,288.9,442.6,302.4,442.6z M302.7,433.6c-7.8,0-13.4-6.3-13.4-13.8l0,0c0-7.5,5.6-13.8,13.4-13.8
		c7.8,0,13.4,6.3,13.4,13.8l0,0C315.8,427.3,310.6,433.6,302.7,433.6z"/>
	<path fill="#262626" d="M355.8,442.6c7.1,0,11.9-2.2,15.7-5.6c0.7-0.7,1.5-1.9,1.5-3.4c0-2.6-2.2-4.5-4.5-4.5c-1.1,0-2.2,0.4-3,1.1
		c-2.6,2.2-5.6,3.4-9.7,3.4c-7.5,0-13.1-6.3-13.1-13.8l0,0c0-7.5,5.2-13.8,13.1-13.8c3.4,0,6.3,1.1,9,3.4c0.7,0.4,1.5,1.1,3,1.1
		c2.6,0,4.9-2.2,4.9-4.9c0-1.9-0.7-3-1.9-3.7c-3.7-2.6-8.2-4.5-14.9-4.5c-13.8,0-23.2,10.5-23.2,23.2l0,0
		C333,432.5,342.7,442.6,355.8,442.6z"/>
	<path fill="#262626" d="M402.1,442.6c13.8,0,23.5-10.5,23.5-23.2l0,0c0-12.7-9.7-22.8-23.5-22.8s-23.5,10.5-23.5,23.2l0,0
		C378.6,432.1,388.3,442.6,402.1,442.6z M402.1,433.6c-7.8,0-13.4-6.3-13.4-13.8l0,0c0-7.5,5.6-13.8,13.4-13.8s13.4,6.3,13.4,13.8
		l0,0C415.5,427.3,409.9,433.6,402.1,433.6z"/>
	<path fill="#262626" d="M434.6,437c0,2.6,2.2,4.9,4.9,4.9h12.3c13.8,0,23.5-9.7,23.5-22l0,0c0-12.3-9.7-22-23.5-22h-12.3
		c-2.6,0-4.9,2.2-4.9,4.9V437z M444.3,432.9V406h7.5c7.8,0,13.4,5.6,13.4,13.4l0,0c0,7.8-5.2,13.4-13.4,13.4
		C451.7,432.9,444.3,432.9,444.3,432.9z"/>
	<path fill="#262626" d="M489.1,441.9h25c2.2,0,4.5-1.9,4.5-4.5c0-2.2-1.9-4.5-4.5-4.5h-20.2v-9.3h16.8c2.2,0,4.5-1.9,4.5-4.5
		c0-2.2-1.9-4.5-4.5-4.5h-16.8V406h19.8c2.2,0,4.5-1.9,4.5-4.5c0-2.2-1.9-4.5-4.5-4.5h-24.6c-2.6,0-4.9,2.2-4.9,4.9v34.7
		C484.2,439.6,486.1,441.9,489.1,441.9z"/>
</g>
</svg>
